<?xml version="1.0" encoding="utf-8"?><svg xmlns="http://www.w3.org/2000/svg" xmlns:xlink="http://www.w3.org/1999/xlink"><symbol viewBox="0 0 30.7 35.9" id="01" xmlns="http://www.w3.org/2000/svg"><path class="ast0" d="M.5 11.3l27.3-.1c-1.1 7.3-1.9 16.5-.1 23.5L.5 34.6c1.4-8.1 1.7-15.1 0-23.3zm1.4-3.8V5.9S.8 6.2.3 7.1c-.5.9-1.4 2.7-1.4 2.7C.5 20 .6 25.9-1.2 35.9l30.5.1c-1.5-9.8-1.5-16.2.1-25.9.1-.1-2-3.7-2-3.7s-.6-.5-1.1-.6h-.7l2.5 4.1H.4c0 .1 1.2-2.3 1.5-2.4z"/><path class="ast1" d="M7.3 18C7.5 29.9 21 29.5 21 18c1.8-1.1-.1-3.7-1.7-2.2-.6.5-.7 1.3-.1 2 .2.2.3.2.3.2.1 9.4-11 10.2-10.9 0 .9-.3 1.2-2.1-.2-2.5-.7-.2-1.7.1-1.9 1-.1.7.2 1.4.8 1.5M3.2 8.6L3.1 2S2.8.5 4.8.4h7.9c1.2.2 1.5.6 1.5 1.7l-1.4.9-.1-1.2H4.6v6.8H3.2zm8.3.1l-.7-1.4 9.4-5.5 4 6.8 1.6.1-4.7-8s-.5-.6-1.6-.1c-1.1.6-9.8 5.6-9.8 5.6-.6.8-.4 1.7.2 2.5h1.6z"/></symbol></svg>