<?xml version="1.0" encoding="utf-8"?>
<!-- Generator: Adobe Illustrator 21.1.0, SVG Export Plug-In . SVG Version: 6.00 Build 0)  -->
<svg version="1.1" id="Layer_1" xmlns="http://www.w3.org/2000/svg" xmlns:xlink="http://www.w3.org/1999/xlink" x="0px" y="0px"
	 viewBox="0 0 29.4 36" style="enable-background:new 0 0 29.4 36;" xml:space="preserve">
<style type="text/css">
	.st0{clip-path:url(#SVGID_2_);fill-rule:evenodd;clip-rule:evenodd;fill:#B8D700;}
	.st1{clip-path:url(#SVGID_2_);fill-rule:evenodd;clip-rule:evenodd;fill:#95999C;}
</style>
<g>
	<defs>
		<rect id="SVGID_1_" x="-1.2" width="30.6" height="36"/>
	</defs>
	<clipPath id="SVGID_2_">
		<use xlink:href="#SVGID_1_"  style="overflow:visible;"/>
	</clipPath>
	<path class="st0" d="M0.5,11.3l27.3-0.1c-1.1,7.3-1.9,16.5-0.1,23.5L0.5,34.6C1.9,26.5,2.2,19.5,0.5,11.3L0.5,11.3z M1.9,7.5V5.9
		c0,0-1.1,0.3-1.6,1.2C-0.2,8-1.1,9.8-1.1,9.8C0.5,20,0.6,25.9-1.2,35.9L29.3,36c-1.5-9.8-1.5-16.2,0.1-25.9c0.1-0.1-2-3.7-2-3.7
		s-0.6-0.5-1.1-0.6h-0.7l2.5,4.1H0.4C0.4,10,1.6,7.6,1.9,7.5L1.9,7.5z"/>
	<path class="st1" d="M7.3,18C7.5,29.9,21,29.5,21,18c1.8-1.1-0.1-3.7-1.7-2.2c-0.6,0.5-0.7,1.3-0.1,2c0.2,0.2,0.3,0.2,0.3,0.2
		c0.1,9.4-11,10.2-10.9,0c0.9-0.3,1.2-2.1-0.2-2.5c-0.7-0.2-1.7,0.1-1.9,1C6.4,17.2,6.7,17.9,7.3,18"/>
	<path class="st1" d="M3.2,8.6L3.1,2c0,0-0.3-1.5,1.7-1.6h7.9c1.2,0.2,1.5,0.6,1.5,1.7l-1.4,0.9l-0.1-1.2L4.6,1.8v6.8H3.2z"/>
	<path class="st1" d="M11.5,8.7l-0.7-1.4l9.4-5.5l4,6.8l1.6,0.1l-4.7-8c0,0-0.5-0.6-1.6-0.1c-1.1,0.6-9.8,5.6-9.8,5.6
		C9.1,7,9.3,7.9,9.9,8.7H11.5z"/>
</g>
</svg>
